<svg xmlns="http://www.w3.org/2000/svg" xmlns:svg="http://www.w3.org/2000/svg" id="svg2" width="212.533" height="268.667" version="1.1" viewBox="0 0 212.533 268.667" xml:space="preserve"><metadata id="metadata8"/><defs id="defs6"><clipPath id="clipPath18" clipPathUnits="userSpaceOnUse"><path style="clip-rule:evenodd" id="path16" d="M 0,-0.1 H 216.1 V 288 H 0 Z"/></clipPath></defs><g id="g10" transform="matrix(1.3333333,0,0,-1.3333333,-37.733332,329.33333)"><g id="g12"><g id="g14" clip-path="url(#clipPath18)"><path id="path20" d="M 108,45.5 H 28.3 v 54 h 159.4 v -54 z" style="fill:#f96;fill-opacity:1;fill-rule:evenodd;stroke:none"/><g id="g22"><text id="text26" transform="matrix(1,0,0,-1,48.3,68.3)" style="font-style:italic;font-variant:normal;font-weight:700;font-size:12px;font-family:Arial;-inkscape-font-specification:Arial-BoldItalicMT;writing-mode:lr-tb;fill:#000;fill-opacity:1;fill-rule:nonzero;stroke:none"><tspan id="tspan24" x="0 6.696 13.392 20.088 23.484 30.18" y="0">scalar</tspan></text></g><g id="g28"><text id="text32" transform="matrix(1,0,0,-1,86.596,68.3)" style="font-style:italic;font-variant:normal;font-size:12px;font-family:Arial;-inkscape-font-specification:Arial-ItalicMT;writing-mode:lr-tb;fill:#000;fill-opacity:1;fill-rule:nonzero;stroke:none"><tspan id="tspan30" x="0 6 12.696 19.392 26.088 29.484 36.18 42.876 49.572 56.376 60.276 66.972 70.368 77.064" y="0">code generator</tspan></text></g><path id="path34" d="m 29.5,119.3 v 13.6 c -0.8,1.4 -1.2,2.7 -1.2,4.1 0,1 0.2,1.8 0.5,2.7 0.2,0.4 0.4,0.8 0.7,1.2 v 32.4 h 157.3 v -29.6 c 0.6,-1.2 0.9,-2.4 0.9,-3.7 0,-1 -0.2,-1.8 -0.5,-2.6 -0.1,-0.3 -0.3,-0.6 -0.4,-0.9 v -17.2 h -73.1 -11.2 z m 73,0 h 11.2 v -13.5 h 5.6 l -11.2,-4.5 -11.2,4.5 h 5.6 z" style="fill:#ff0;fill-opacity:1;fill-rule:evenodd;stroke:none"/><g id="g36"><text id="text40" transform="matrix(1,0,0,-1,47.7,150)" style="font-style:italic;font-variant:normal;font-weight:700;font-size:12px;font-family:Arial;-inkscape-font-specification:Arial-BoldItalicMT;writing-mode:lr-tb;fill:#000;fill-opacity:1;fill-rule:nonzero;stroke:none"><tspan id="tspan38" x="0 6.696 13.392 20.088 24.084 31.38" y="0">vector</tspan></text></g><g id="g42"><text id="text46" transform="matrix(1,0,0,-1,87.196,150)" style="font-style:italic;font-variant:normal;font-size:12px;font-family:Arial;-inkscape-font-specification:Arial-ItalicMT;writing-mode:lr-tb;fill:#000;fill-opacity:1;fill-rule:nonzero;stroke:none"><tspan id="tspan44" x="0 5.904 12.708 19.404 26.1 29.496 36.192 42.888 49.584 56.28 60.276 66.972 70.368 77.064" y="0">code generator</tspan></text></g><g id="g48"><text id="text52" transform="matrix(1,0,0,-1,62.8,136.5)" style="font-style:italic;font-variant:normal;font-size:12px;font-family:Arial;-inkscape-font-specification:Arial-ItalicMT;writing-mode:lr-tb;fill:#000;fill-opacity:1;fill-rule:nonzero;stroke:none"><tspan id="tspan50" x="0 3.996 6.6 13.296 19.992 26.688 30.084 36.084 42.78 49.476 56.28 60.18 66.876 70.272 72.972 79.668 86.364" y="0">(loop separation)</tspan></text></g><path id="path54" d="m 29.5,193 v 13.6 c -0.8,1.4 -1.2,2.7 -1.2,4.1 0,1 0.2,1.8 0.5,2.7 0.2,0.4 0.4,0.8 0.7,1.2 V 247 h 157.3 v -29.6 c 0.6,-1.2 0.9,-2.4 0.9,-3.7 0,-1 -0.2,-1.8 -0.5,-2.6 -0.1,-0.3 -0.3,-0.6 -0.4,-0.9 V 193 h -73.1 -11.2 z m 73,0 h 11.2 v -13.5 h 5.6 l -11.2,-4.5 -11.2,4.5 h 5.6 z" style="fill:#00dcff;fill-opacity:1;fill-rule:evenodd;stroke:none"/><g id="g56"><text id="text60" transform="matrix(1,0,0,-1,44.1,223.7)" style="font-style:italic;font-variant:normal;font-weight:700;font-size:12px;font-family:Arial;-inkscape-font-specification:Arial-BoldItalicMT;writing-mode:lr-tb;fill:#000;fill-opacity:1;fill-rule:nonzero;stroke:none"><tspan id="tspan58" x="0 7.296 13.992 18.696 25.392 28.788 32.088 38.784" y="0">parallel</tspan></text></g><g id="g62"><text id="text66" transform="matrix(1,0,0,-1,89.696,223.7)" style="font-style:italic;font-variant:normal;font-size:12px;font-family:Arial;-inkscape-font-specification:Arial-ItalicMT;writing-mode:lr-tb;fill:#000;fill-opacity:1;fill-rule:nonzero;stroke:none"><tspan id="tspan64" x="0 5.904 12.708 19.404 26.1 29.496 36.192 42.888 49.584 56.28 60.276 66.972 70.368 77.064" y="0">code generator</tspan></text></g><g id="g68"><text id="text72" transform="matrix(1,0,0,-1,52.9,210.2)" style="font-style:italic;font-variant:normal;font-size:12px;font-family:Arial;-inkscape-font-specification:Arial-ItalicMT;writing-mode:lr-tb;fill:#000;fill-opacity:1;fill-rule:nonzero;stroke:none"><tspan id="tspan70" x="0 3.9 13.296 19.992 26.688 33.384 43.38 50.976 54.276 61.08 63.684 67.68 74.376 80.376 83.676 86.376 92.376 99.072 105.072" y="0">(OpenMP directives)</tspan></text></g></g></g></g></svg>