<svg xmlns="http://www.w3.org/2000/svg" xmlns:svg="http://www.w3.org/2000/svg" id="svg2" width="276" height="369.333" version="1.1" viewBox="0 0 276 369.333" xml:space="preserve"><metadata id="metadata8"/><g id="g10" transform="matrix(1.3333333,0,0,-1.3333333,-47.333332,415.33332)"><g id="g12"><path id="path14" d="M 36,35 V 311 H 242 V 35 Z" style="fill:#fff;fill-opacity:1;fill-rule:nonzero;stroke:#fff;stroke-width:1;stroke-linecap:butt;stroke-linejoin:miter;stroke-miterlimit:10;stroke-dasharray:none;stroke-opacity:1"/><path id="path16" d="m 166,59 c 0,-10.934 -12.09,-19.801 -27,-19.801 -14.91,0 -27,8.867 -27,19.801 0,10.934 12.09,19.801 27,19.801 14.91,0 27,-8.867 27,-19.801 z" style="fill:#add8e6;fill-opacity:1;fill-rule:nonzero;stroke:#00f;stroke-width:1;stroke-linecap:butt;stroke-linejoin:miter;stroke-miterlimit:10;stroke-dasharray:none;stroke-opacity:1"/><text id="text20" transform="matrix(1,0,0,-1,131,55)" style="font-variant:normal;font-weight:400;font-size:14px;font-family:'Nimbus Roman';-inkscape-font-specification:NimbusRomanNo9L;writing-mode:lr-tb;fill:#000;fill-opacity:1;fill-rule:nonzero;stroke:none"><tspan id="tspan18" x="0 9.002" y="0">L1</tspan></text><path id="path22" d="m 108,135 c 0,-10.934 -12.09,-19.801 -27,-19.801 -14.91,0 -27,8.867 -27,19.801 0,10.934 12.09,19.801 27,19.801 14.91,0 27,-8.867 27,-19.801 z" style="fill:#add8e6;fill-opacity:1;fill-rule:nonzero;stroke:#00f;stroke-width:1;stroke-linecap:butt;stroke-linejoin:miter;stroke-miterlimit:10;stroke-dasharray:none;stroke-opacity:1"/><text id="text26" transform="matrix(1,0,0,-1,73,131)" style="font-variant:normal;font-weight:400;font-size:14px;font-family:'Nimbus Roman';-inkscape-font-specification:NimbusRomanNo9L;writing-mode:lr-tb;fill:#000;fill-opacity:1;fill-rule:nonzero;stroke:none"><tspan id="tspan24" x="0 9.002" y="0">L4</tspan></text><path id="path28" d="m 126,77 c -8,9 -17,21 -25,32" style="fill:none;stroke:#000;stroke-width:1;stroke-linecap:butt;stroke-linejoin:miter;stroke-miterlimit:10;stroke-dasharray:none;stroke-opacity:1"/><path id="path30" d="M 97.949,107.168 94,117 l 9.219,-5.223 z" style="fill:#000;fill-opacity:1;fill-rule:nonzero;stroke:#000;stroke-width:1;stroke-linecap:butt;stroke-linejoin:miter;stroke-miterlimit:10;stroke-dasharray:none;stroke-opacity:1"/><path id="path32" d="m 229,211 c 0,-10.934 -12.09,-19.801 -27,-19.801 -14.91,0 -27,8.867 -27,19.801 0,10.934 12.09,19.801 27,19.801 14.91,0 27,-8.867 27,-19.801 z" style="fill:#add8e6;fill-opacity:1;fill-rule:nonzero;stroke:#00f;stroke-width:1;stroke-linecap:butt;stroke-linejoin:miter;stroke-miterlimit:10;stroke-dasharray:none;stroke-opacity:1"/><text id="text36" transform="matrix(1,0,0,-1,194,207)" style="font-variant:normal;font-weight:400;font-size:14px;font-family:'Nimbus Roman';-inkscape-font-specification:NimbusRomanNo9L;writing-mode:lr-tb;fill:#000;fill-opacity:1;fill-rule:nonzero;stroke:none"><tspan id="tspan34" x="0 9.002" y="0">L7</tspan></text><path id="path38" d="m 144,79 c 5,20 14,51 26,76 4,10 9,20 15,29" style="fill:none;stroke:#000;stroke-width:1;stroke-linecap:butt;stroke-linejoin:miter;stroke-miterlimit:10;stroke-dasharray:none;stroke-opacity:1"/><path id="path40" d="M 182.082,185.957 190,193 188.203,182.559 Z" style="fill:#000;fill-opacity:1;fill-rule:nonzero;stroke:#000;stroke-width:1;stroke-linecap:butt;stroke-linejoin:miter;stroke-miterlimit:10;stroke-dasharray:none;stroke-opacity:1"/><path id="path42" d="m 129,287 c 0,-10.934 -12.09,-19.801 -27,-19.801 -14.91,0 -27,8.867 -27,19.801 0,10.934 12.09,19.801 27,19.801 14.91,0 27,-8.867 27,-19.801 z" style="fill:#add8e6;fill-opacity:1;fill-rule:nonzero;stroke:#00f;stroke-width:1;stroke-linecap:butt;stroke-linejoin:miter;stroke-miterlimit:10;stroke-dasharray:none;stroke-opacity:1"/><text id="text46" transform="matrix(1,0,0,-1,94,283)" style="font-variant:normal;font-weight:400;font-size:14px;font-family:'Nimbus Roman';-inkscape-font-specification:NimbusRomanNo9L;writing-mode:lr-tb;fill:#000;fill-opacity:1;fill-rule:nonzero;stroke:none"><tspan id="tspan44" x="0 9.002" y="0">L8</tspan></text><path id="path48" d="m 84,155 c 2,20 6,50 10,76 1,9 2,18 3,26" style="fill:none;stroke:#000;stroke-width:1;stroke-linecap:butt;stroke-linejoin:miter;stroke-miterlimit:10;stroke-dasharray:none;stroke-opacity:1"/><path id="path50" d="M 93.605,257.879 99,267 l 1.473,-10.492 z" style="fill:#000;fill-opacity:1;fill-rule:nonzero;stroke:#000;stroke-width:1;stroke-linecap:butt;stroke-linejoin:miter;stroke-miterlimit:10;stroke-dasharray:none;stroke-opacity:1"/><path id="path52" d="m 157,211 c 0,-10.934 -12.09,-19.801 -27,-19.801 -14.91,0 -27,8.867 -27,19.801 0,10.934 12.09,19.801 27,19.801 14.91,0 27,-8.867 27,-19.801 z" style="fill:#add8e6;fill-opacity:1;fill-rule:nonzero;stroke:#00f;stroke-width:1;stroke-linecap:butt;stroke-linejoin:miter;stroke-miterlimit:10;stroke-dasharray:none;stroke-opacity:1"/><text id="text56" transform="matrix(1,0,0,-1,122,207)" style="font-variant:normal;font-weight:400;font-size:14px;font-family:'Nimbus Roman';-inkscape-font-specification:NimbusRomanNo9L;writing-mode:lr-tb;fill:#000;fill-opacity:1;fill-rule:nonzero;stroke:none"><tspan id="tspan54" x="0 9.002" y="0">L6</tspan></text><path id="path58" d="m 93,153 c 5,9 13,21 20,32" style="fill:none;stroke:#000;stroke-width:1;stroke-linecap:butt;stroke-linejoin:miter;stroke-miterlimit:10;stroke-dasharray:none;stroke-opacity:1"/><path id="path60" d="M 109.73,186.375 118,193 115.668,182.664 Z" style="fill:#000;fill-opacity:1;fill-rule:nonzero;stroke:#000;stroke-width:1;stroke-linecap:butt;stroke-linejoin:miter;stroke-miterlimit:10;stroke-dasharray:none;stroke-opacity:1"/><path id="path62" d="M 94,59 C 94,48.066 81.91,39.199 67,39.199 52.09,39.199 40,48.066 40,59 40,69.934 52.09,78.801 67,78.801 81.91,78.801 94,69.934 94,59 Z" style="fill:#add8e6;fill-opacity:1;fill-rule:nonzero;stroke:#00f;stroke-width:1;stroke-linecap:butt;stroke-linejoin:miter;stroke-miterlimit:10;stroke-dasharray:none;stroke-opacity:1"/><text id="text66" transform="matrix(1,0,0,-1,59,55)" style="font-variant:normal;font-weight:400;font-size:14px;font-family:'Nimbus Roman';-inkscape-font-specification:NimbusRomanNo9L;writing-mode:lr-tb;fill:#000;fill-opacity:1;fill-rule:nonzero;stroke:none"><tspan id="tspan64" x="0 9.002" y="0">L2</tspan></text><path id="path68" d="m 71,79 c 1,8 3,17 4,26" style="fill:none;stroke:#000;stroke-width:1;stroke-linecap:butt;stroke-linejoin:miter;stroke-miterlimit:10;stroke-dasharray:none;stroke-opacity:1"/><path id="path70" d="M 71.605,105.879 77,115 78.473,104.508 Z" style="fill:#000;fill-opacity:1;fill-rule:nonzero;stroke:#000;stroke-width:1;stroke-linecap:butt;stroke-linejoin:miter;stroke-miterlimit:10;stroke-dasharray:none;stroke-opacity:1"/><path id="path72" d="m 123,231 c -4,8 -7,18 -11,27" style="fill:none;stroke:#000;stroke-width:1;stroke-linecap:butt;stroke-linejoin:miter;stroke-miterlimit:10;stroke-dasharray:none;stroke-opacity:1"/><path id="path74" d="M 108.52,257.414 109,268 l 6.227,-8.574 z" style="fill:#000;fill-opacity:1;fill-rule:nonzero;stroke:#000;stroke-width:1;stroke-linecap:butt;stroke-linejoin:miter;stroke-miterlimit:10;stroke-dasharray:none;stroke-opacity:1"/><path id="path76" d="m 215,287 c 0,-10.934 -12.09,-19.801 -27,-19.801 -14.91,0 -27,8.867 -27,19.801 0,10.934 12.09,19.801 27,19.801 14.91,0 27,-8.867 27,-19.801 z" style="fill:#add8e6;fill-opacity:1;fill-rule:nonzero;stroke:#00f;stroke-width:1;stroke-linecap:butt;stroke-linejoin:miter;stroke-miterlimit:10;stroke-dasharray:none;stroke-opacity:1"/><text id="text80" transform="matrix(1,0,0,-1,180,283)" style="font-variant:normal;font-weight:400;font-size:14px;font-family:'Nimbus Roman';-inkscape-font-specification:NimbusRomanNo9L;writing-mode:lr-tb;fill:#000;fill-opacity:1;fill-rule:nonzero;stroke:none"><tspan id="tspan78" x="0 9.002" y="0">L9</tspan></text><path id="path82" d="m 143,229 c 8,9 17,21 25,32" style="fill:none;stroke:#000;stroke-width:1;stroke-linecap:butt;stroke-linejoin:miter;stroke-miterlimit:10;stroke-dasharray:none;stroke-opacity:1"/><path id="path84" d="M 165.781,263.777 175,269 l -3.949,-9.832 z" style="fill:#000;fill-opacity:1;fill-rule:nonzero;stroke:#000;stroke-width:1;stroke-linecap:butt;stroke-linejoin:miter;stroke-miterlimit:10;stroke-dasharray:none;stroke-opacity:1"/><path id="path86" d="m 238,59 c 0,-10.934 -12.09,-19.801 -27,-19.801 -14.91,0 -27,8.867 -27,19.801 0,10.934 12.09,19.801 27,19.801 14.91,0 27,-8.867 27,-19.801 z" style="fill:#add8e6;fill-opacity:1;fill-rule:nonzero;stroke:#00f;stroke-width:1;stroke-linecap:butt;stroke-linejoin:miter;stroke-miterlimit:10;stroke-dasharray:none;stroke-opacity:1"/><text id="text90" transform="matrix(1,0,0,-1,203,55)" style="font-variant:normal;font-weight:400;font-size:14px;font-family:'Nimbus Roman';-inkscape-font-specification:NimbusRomanNo9L;writing-mode:lr-tb;fill:#000;fill-opacity:1;fill-rule:nonzero;stroke:none"><tspan id="tspan88" x="0 9.002" y="0">L3</tspan></text><path id="path92" d="m 233,135 c 0,-10.934 -12.09,-19.801 -27,-19.801 -14.91,0 -27,8.867 -27,19.801 0,10.934 12.09,19.801 27,19.801 14.91,0 27,-8.867 27,-19.801 z" style="fill:#add8e6;fill-opacity:1;fill-rule:nonzero;stroke:#00f;stroke-width:1;stroke-linecap:butt;stroke-linejoin:miter;stroke-miterlimit:10;stroke-dasharray:none;stroke-opacity:1"/><text id="text96" transform="matrix(1,0,0,-1,198,131)" style="font-variant:normal;font-weight:400;font-size:14px;font-family:'Nimbus Roman';-inkscape-font-specification:NimbusRomanNo9L;writing-mode:lr-tb;fill:#000;fill-opacity:1;fill-rule:nonzero;stroke:none"><tspan id="tspan94" x="0 9.002" y="0">L5</tspan></text><path id="path98" d="m 210,79 c -1,8 -1,17 -2,26" style="fill:none;stroke:#000;stroke-width:1;stroke-linecap:butt;stroke-linejoin:miter;stroke-miterlimit:10;stroke-dasharray:none;stroke-opacity:1"/><path id="path100" d="M 204.512,104.703 207,115 l 4.477,-9.602 z" style="fill:#000;fill-opacity:1;fill-rule:nonzero;stroke:#000;stroke-width:1;stroke-linecap:butt;stroke-linejoin:miter;stroke-miterlimit:10;stroke-dasharray:none;stroke-opacity:1"/><path id="path102" d="m 205,155 c 0,8 -1,17 -1,26" style="fill:none;stroke:#000;stroke-width:1;stroke-linecap:butt;stroke-linejoin:miter;stroke-miterlimit:10;stroke-dasharray:none;stroke-opacity:1"/><path id="path104" d="M 200.512,180.703 203,191 l 4.477,-9.602 z" style="fill:#000;fill-opacity:1;fill-rule:nonzero;stroke:#000;stroke-width:1;stroke-linecap:butt;stroke-linejoin:miter;stroke-miterlimit:10;stroke-dasharray:none;stroke-opacity:1"/><path id="path106" d="m 198,231 c -1,8 -3,17 -4,26" style="fill:none;stroke:#000;stroke-width:1;stroke-linecap:butt;stroke-linejoin:miter;stroke-miterlimit:10;stroke-dasharray:none;stroke-opacity:1"/><path id="path108" d="M 190.527,256.508 192,267 l 5.395,-9.121 z" style="fill:#000;fill-opacity:1;fill-rule:nonzero;stroke:#000;stroke-width:1;stroke-linecap:butt;stroke-linejoin:miter;stroke-miterlimit:10;stroke-dasharray:none;stroke-opacity:1"/></g></g></svg>