<svg xmlns="http://www.w3.org/2000/svg" xmlns:svg="http://www.w3.org/2000/svg" id="svg2" width="768" height="288" version="1.1" viewBox="0 0 768 288" xml:space="preserve"><metadata id="metadata8"/><defs id="defs6"><clipPath id="clipPath18" clipPathUnits="userSpaceOnUse"><path style="clip-rule:evenodd" id="path16" d="M 0,-0.1 H 576.1 V 216 H 0 Z"/></clipPath></defs><g id="g10" transform="matrix(1.3333333,0,0,-1.3333333,0,288)"><g id="g12"><g id="g14" clip-path="url(#clipPath18)"><path id="path20" d="m 127.7,160.2 h 67.5 v 4.5 l 22.5,-9 -22.5,-9 v 4.5 h -67.5 z" style="fill:#fc9;fill-opacity:1;fill-rule:evenodd;stroke:none"/><path id="path22" d="m 127.7,137.5 h 67.6 v 4.5 l 22.5,-9 -22.5,-9 v 4.5 h -67.6 z" style="fill:#fc9;fill-opacity:1;fill-rule:evenodd;stroke:none"/><path id="path24" d="m 127.7,117.7 h 67.6 v 4.4 l 22.5,-8.9 -22.5,-9.1 v 4.6 h -67.6 z" style="fill:#dc2300;fill-opacity:1;fill-rule:evenodd;stroke:none"/><path id="path26" d="m 127.7,95 h 67.6 v 4.5 l 22.5,-9 -22.5,-9 V 86 h -67.6 z" style="fill:#fc9;fill-opacity:1;fill-rule:evenodd;stroke:none"/><path id="path28" d="m 127.7,72.3 h 67.6 v 4.5 l 22.5,-9 -22.5,-9 v 4.5 h -67.6 z" style="fill:#fc9;fill-opacity:1;fill-rule:evenodd;stroke:none"/><path id="path30" d="m 220.5,58.7 v 108 l 20.2,-54 v 0 z" style="fill:#ffd320;fill-opacity:1;fill-rule:evenodd;stroke:none"/><path id="path32" d="m 14.4,117.6 h 67.5 v 4.5 l 22.5,-9 -22.5,-9 v 4.5 H 14.4 Z" style="fill:#dc2300;fill-opacity:1;fill-rule:evenodd;stroke:none"/><path id="path34" d="m 244,117.6 h 67.5 v 4.5 l 22.5,-9 -22.5,-9 v 4.5 H 244 Z" style="fill:#dc2300;fill-opacity:1;fill-rule:evenodd;stroke:none"/><g id="g36"><text id="text40" transform="matrix(1,0,0,-1,112.5,35.6)" style="font-style:italic;font-variant:normal;font-weight:700;font-size:12px;font-family:Arial;-inkscape-font-specification:Arial-BoldItalicMT;writing-mode:lr-tb;fill:#000;fill-opacity:1;fill-rule:nonzero;stroke:none"><tspan id="tspan38" x="0 6.696 13.992 18.696 25.392 32.796 43.392" y="0">#pragma</tspan></text></g><g id="g42"><text id="text46" transform="matrix(1,0,0,-1,166.096,35.6)" style="font-style:italic;font-variant:normal;font-size:12px;font-family:Arial;-inkscape-font-specification:Arial-ItalicMT;writing-mode:lr-tb;fill:#000;fill-opacity:1;fill-rule:nonzero;stroke:none"><tspan id="tspan44" x="0 6.696 16.5 23.196 26.592 33.288 39.984 43.98 50.676 53.28 55.98 62.676" y="0">omp parallel</tspan></text></g><path id="path48" d="m 357.3,160.2 h 67.5 v 4.5 l 22.5,-9 -22.5,-9 v 4.5 h -67.5 z" style="fill:#fc9;fill-opacity:1;fill-rule:evenodd;stroke:none"/><path id="path50" d="m 357.3,137.5 h 67.6 v 4.5 l 22.5,-9 -22.5,-9 v 4.5 h -67.6 z" style="fill:#fc9;fill-opacity:1;fill-rule:evenodd;stroke:none"/><path id="path52" d="m 357.3,117.7 h 67.6 v 4.4 l 22.5,-8.9 -22.5,-9.1 v 4.6 h -67.6 z" style="fill:#dc2300;fill-opacity:1;fill-rule:evenodd;stroke:none"/><path id="path54" d="m 357.3,95 h 67.6 v 4.5 l 22.5,-9 -22.5,-9 V 86 h -67.6 z" style="fill:#fc9;fill-opacity:1;fill-rule:evenodd;stroke:none"/><path id="path56" d="m 357.3,72.3 h 67.6 v 4.5 l 22.5,-9 -22.5,-9 v 4.5 h -67.6 z" style="fill:#fc9;fill-opacity:1;fill-rule:evenodd;stroke:none"/><path id="path58" d="m 473.6,117.6 h 67.5 v 4.5 l 22.5,-9 -22.5,-9 v 4.5 h -67.5 z" style="fill:#dc2300;fill-opacity:1;fill-rule:evenodd;stroke:none"/><g id="g60"><text id="text64" transform="matrix(1,0,0,-1,14,128.6)" style="font-variant:normal;font-weight:900;font-size:10px;font-family:Arial;-inkscape-font-specification:Arial-Black;writing-mode:lr-tb;fill:#000;fill-opacity:1;fill-rule:nonzero;stroke:none"><tspan id="tspan62" x="0 10 16.6 22.7 27.1 33.7 38.2 41.5 46 52.6 57.1 63.7 70.3" y="0">master thread</tspan></text></g><path id="path66" d="m 450.1,58.7 v 108 l 20.2,-54 v 0 z" style="fill:#ffd320;fill-opacity:1;fill-rule:evenodd;stroke:none"/><path id="path68" d="m 124.4,58.7 v 108 l -20.1,-54 v 0 z" style="fill:#ffd320;fill-opacity:1;fill-rule:evenodd;stroke:none"/><path id="path70" d="m 354,58.7 v 108 l -20.1,-54 v 0 z" style="fill:#ffd320;fill-opacity:1;fill-rule:evenodd;stroke:none"/><g id="g72"><text id="text76" transform="matrix(0,1,1,0,118.2,102.8)" style="font-variant:normal;font-weight:700;font-size:12px;font-family:Arial;-inkscape-font-specification:Arial-BoldMT;writing-mode:lr-tb;fill:#000;fill-opacity:1;fill-rule:nonzero;stroke:none"><tspan id="tspan74" x="0 3.996 11.292 15.996" y="0">fork</tspan></text></g><g id="g78"><text id="text82" transform="matrix(0,1,1,0,347.9,102.8)" style="font-variant:normal;font-weight:700;font-size:12px;font-family:Arial;-inkscape-font-specification:Arial-BoldMT;writing-mode:lr-tb;fill:#000;fill-opacity:1;fill-rule:nonzero;stroke:none"><tspan id="tspan80" x="0 3.9 11.196 15.9" y="0">fork</tspan></text></g><g id="g84"><text id="text88" transform="matrix(0,1,1,0,233.5,103.9)" style="font-variant:normal;font-weight:700;font-size:12px;font-family:Arial;-inkscape-font-specification:Arial-BoldMT;writing-mode:lr-tb;fill:#000;fill-opacity:1;fill-rule:nonzero;stroke:none"><tspan id="tspan86" x="0 3.204 10.5 13.896" y="0">join</tspan></text></g><g id="g90"><text id="text94" transform="matrix(0,1,1,0,463.1,103.9)" style="font-variant:normal;font-weight:700;font-size:12px;font-family:Arial;-inkscape-font-specification:Arial-BoldMT;writing-mode:lr-tb;fill:#000;fill-opacity:1;fill-rule:nonzero;stroke:none"><tspan id="tspan92" x="0 3.204 10.608 13.908" y="0">join</tspan></text></g><g id="g96"><text id="text100" transform="matrix(1,0,0,-1,345,35.6)" style="font-style:italic;font-variant:normal;font-weight:700;font-size:12px;font-family:Arial;-inkscape-font-specification:Arial-BoldItalicMT;writing-mode:lr-tb;fill:#000;fill-opacity:1;fill-rule:nonzero;stroke:none"><tspan id="tspan98" x="0 6.696 13.992 18.696 25.392 32.796 43.392" y="0">#pragma</tspan></text></g><g id="g102"><text id="text106" transform="matrix(1,0,0,-1,398.596,35.6)" style="font-style:italic;font-variant:normal;font-size:12px;font-family:Arial;-inkscape-font-specification:Arial-ItalicMT;writing-mode:lr-tb;fill:#000;fill-opacity:1;fill-rule:nonzero;stroke:none"><tspan id="tspan104" x="0 6.696 16.5 23.196 26.592 33.288 39.984 43.98 50.676 53.28 55.98 62.676" y="0">omp parallel</tspan></text></g></g></g></g></svg>